<svg width="30" height="30" viewBox="0 0 30 30" fill="none" xmlns="http://www.w3.org/2000/svg">
<path d="M15 27.5C21.9036 27.5 27.5 21.9036 27.5 15C27.5 8.09644 21.9036 2.5 15 2.5C8.09644 2.5 2.5 8.09644 2.5 15C2.5 21.9036 8.09644 27.5 15 27.5Z" stroke="#353535" stroke-width="2" stroke-linecap="round" stroke-linejoin="round"/>
<path d="M27.1875 16.05C22.8125 14.8875 18.9 15.025 16.0125 16.05C12.7875 17.2 9.75 19.625 6.7125 23.95M10.7 3.4375C16.1625 10.975 18.225 15.2125 20.7375 25.5875L10.7 3.4375ZM23.9125 6.3625C19.2625 11.8 12.7375 13.4375 2.8125 13.675L23.9125 6.3625Z" stroke="#353535" stroke-width="2" stroke-linecap="round" stroke-linejoin="round"/>
</svg>
